<?xml version="1.0" encoding="utf-8"?>
<!-- Generator: Adobe Illustrator 21.1.0, SVG Export Plug-In . SVG Version: 6.00 Build 0)  -->
<svg version="1.1" id="Layer_1" xmlns="http://www.w3.org/2000/svg" xmlns:xlink="http://www.w3.org/1999/xlink" x="0px" y="0px"
	 viewBox="0 0 1280 720" style="enable-background:new 0 0 1280 720;" xml:space="preserve">
<style type="text/css">
	.st0{fill:#25273A;}
	.st1{fill:#006838;}
	.st2{fill:#BE1E2D;}
	.st3{fill:#3A9144;}
	.st4{opacity:0.2;clip-path:url(#XMLID_3_);}
	.st5{opacity:0;}
	.st6{opacity:2.439024e-02;}
	.st7{opacity:4.878049e-02;}
	.st8{opacity:7.317073e-02;}
	.st9{opacity:9.756097e-02;}
	.st10{opacity:0.122;}
	.st11{opacity:0.1463;}
	.st12{opacity:0.1707;}
	.st13{opacity:0.1951;}
	.st14{opacity:0.2195;}
	.st15{opacity:0.2439;}
	.st16{opacity:0.2683;}
	.st17{opacity:0.2927;}
	.st18{opacity:0.3171;}
	.st19{opacity:0.3415;}
	.st20{opacity:0.3659;}
	.st21{opacity:0.3902;}
	.st22{opacity:0.4146;}
	.st23{opacity:0.439;}
	.st24{opacity:0.4634;}
	.st25{opacity:0.4878;}
	.st26{opacity:0.5122;}
	.st27{opacity:0.5366;}
	.st28{opacity:0.561;}
	.st29{opacity:0.5854;}
	.st30{opacity:0.6098;}
	.st31{opacity:0.6341;}
	.st32{opacity:0.6585;}
	.st33{opacity:0.6829;}
	.st34{opacity:0.7073;}
	.st35{opacity:0.7317;}
	.st36{opacity:0.7561;}
	.st37{opacity:0.7805;}
	.st38{opacity:0.8049;}
	.st39{opacity:0.8293;}
	.st40{opacity:0.8537;}
	.st41{opacity:0.878;}
	.st42{opacity:0.9024;}
	.st43{opacity:0.9268;}
	.st44{opacity:0.9512;}
	.st45{opacity:0.9756;}
	.st46{fill:#FFFFFF;}
	.st47{fill:#24B34B;}
	.st48{fill:url(#SVGID_1_);}
	.st49{fill:#5C9741;}
	.st50{opacity:0.8;}
	.st51{fill:url(#SVGID_2_);}
	.st52{fill:url(#SVGID_3_);}
	.st53{fill:url(#SVGID_4_);}
	.st54{opacity:0.8;fill:url(#SVGID_5_);}
	.st55{opacity:0.5;}
	.st56{opacity:0.7;}
	.st57{fill:#010101;}
	.st58{fill:#86C545;}
	.st59{fill:url(#SVGID_6_);}
	.st60{fill:url(#SVGID_7_);}
	.st61{fill:url(#SVGID_8_);}
	.st62{fill:url(#SVGID_9_);}
	.st63{fill:url(#SVGID_10_);}
	.st64{fill:url(#SVGID_11_);}
	.st65{fill:url(#SVGID_12_);}
	.st66{fill:url(#SVGID_13_);}
	.st67{fill:url(#SVGID_14_);}
	.st68{fill:url(#SVGID_15_);}
	.st69{fill:none;stroke:#000000;stroke-width:2;stroke-miterlimit:10;}
	.st70{fill:none;stroke:#3A9144;stroke-miterlimit:10;}
	.st71{fill:none;stroke:#FFFFFF;stroke-width:3;stroke-miterlimit:10;}
	.st72{opacity:0.3;}
	.st73{fill:#009444;}
	.st74{fill:#ED1E24;}
	.st75{fill:#808285;}
	.st76{fill:none;stroke:#808285;stroke-miterlimit:10;}
	.st77{fill:#2BA87E;}
	.st78{fill:#009A6C;}
	.st79{fill:#39B54A;}
	.st80{fill:#253370;}
	.st81{fill:#E4E9F4;}
	.st82{fill:#2B3990;}
	.st83{fill:#262262;}
	.st84{fill:none;stroke:#E5E5E5;}
	.st85{fill:#E5E5E5;}
	.st86{fill:#F7F7F7;stroke:#2BA87E;stroke-miterlimit:10;}
	.st87{fill:#939598;}
	.st88{fill:#8C8C8C;}
	.st89{fill:#8E8D8D;}
	.st90{fill:none;stroke:#009A6C;stroke-width:5;stroke-miterlimit:10;}
	.st91{fill:none;stroke:#BE1E2D;stroke-width:5;stroke-miterlimit:10;}
	.st92{fill:#202020;}
	.st93{fill-rule:evenodd;clip-rule:evenodd;fill:#ADADAD;}
	.st94{fill-rule:evenodd;clip-rule:evenodd;fill:#FFFFFF;}
	.st95{fill-rule:evenodd;clip-rule:evenodd;fill:#E6E6EA;}
	.st96{opacity:0.4;}
</style>
<g>
	<g>
		<path class="st73" d="M432.7,539.3v43.4h17.4V595h-31.8v-55.7H432.7z"/>
		<path class="st73" d="M468.3,578.4c0,5.8,2.7,8.6,8.1,8.6c2.9,0,5.1-1.2,6.6-3.5H496c-2.6,8.7-9.1,13-19.6,13
			c-3.2,0-6.1-0.5-8.8-1.4c-2.7-1-4.9-2.3-6.8-4.1c-1.9-1.8-3.4-3.9-4.4-6.4c-1-2.5-1.6-5.2-1.6-8.3c0-3.2,0.5-6,1.5-8.5
			c1-2.5,2.4-4.7,4.2-6.5c1.8-1.8,4-3.1,6.6-4.1c2.6-1,5.5-1.4,8.8-1.4c3.2,0,6.1,0.5,8.6,1.4c2.6,1,4.7,2.4,6.5,4.2
			c1.8,1.8,3.1,4.1,4.1,6.7c0.9,2.6,1.4,5.6,1.4,8.9v1.4H468.3z M484,570.6c-0.4-1.9-1.4-3.4-2.7-4.5c-1.4-1.1-3.1-1.7-5-1.7
			c-2.1,0-3.8,0.5-5.1,1.6c-1.3,1.1-2.1,2.6-2.5,4.6H484z"/>
		<path class="st73" d="M546.5,557.2v35.3c0,2.1-0.1,4-0.4,5.7c-0.2,1.7-0.6,3.2-1,4.4c-0.6,1.6-1.5,3.1-2.8,4.5
			c-1.3,1.4-2.8,2.6-4.5,3.7s-3.8,1.8-6,2.4c-2.2,0.6-4.7,0.9-7.3,0.9c-3,0-5.7-0.4-8.1-1.1c-2.5-0.7-4.6-1.8-6.5-3.1
			c-1.8-1.3-3.4-2.8-4.5-4.6c-1.2-1.7-2-3.7-2.4-5.7H518c0.9,2.5,3.1,3.8,6.4,3.8c2.8,0,5-0.8,6.5-2.4c1.5-1.6,2.3-3.8,2.3-6.6v-3.6
			c-1,0.9-1.9,1.7-2.8,2.3c-0.9,0.6-1.8,1.1-2.8,1.5c-0.9,0.4-1.9,0.7-3,0.8c-1,0.2-2.2,0.3-3.4,0.3c-2.7,0-5.2-0.5-7.5-1.4
			c-2.3-0.9-4.2-2.2-5.9-3.9c-1.7-1.7-2.9-3.7-3.8-6c-0.9-2.3-1.4-4.9-1.4-7.8c0-2.9,0.5-5.6,1.5-8.1c1-2.5,2.3-4.7,4-6.5
			c1.7-1.8,3.7-3.3,6.1-4.4c2.3-1.1,4.9-1.6,7.6-1.6c4.5,0,8.2,1.7,11.3,5v-4H546.5z M516.5,575.9c0,1.2,0.2,2.4,0.7,3.4
			c0.4,1.1,1,2,1.8,2.8c0.8,0.8,1.7,1.4,2.7,1.8c1.1,0.4,2.2,0.7,3.4,0.7c1.2,0,2.3-0.2,3.4-0.7c1.1-0.4,2-1.1,2.7-1.8
			c0.8-0.8,1.4-1.7,1.8-2.8c0.5-1.1,0.7-2.2,0.7-3.4c0-1.2-0.2-2.4-0.7-3.4c-0.5-1-1.1-1.9-1.9-2.7c-0.8-0.8-1.7-1.4-2.8-1.8
			c-1.1-0.4-2.2-0.7-3.3-0.7c-1.2,0-2.3,0.2-3.3,0.7c-1,0.5-1.9,1.1-2.7,1.8c-0.8,0.8-1.4,1.7-1.9,2.7
			C516.7,573.6,516.5,574.7,516.5,575.9z"/>
		<path class="st73" d="M554.7,542.6c0-1,0.2-2,0.6-2.9c0.4-0.9,0.9-1.7,1.6-2.4c0.7-0.7,1.5-1.2,2.4-1.6c0.9-0.4,1.9-0.6,2.9-0.6
			c1,0,2,0.2,2.9,0.6c0.9,0.4,1.7,0.9,2.4,1.6c0.7,0.7,1.2,1.5,1.6,2.4c0.4,0.9,0.6,1.9,0.6,2.9c0,1-0.2,2-0.6,2.9
			c-0.4,0.9-0.9,1.7-1.6,2.4c-0.7,0.7-1.5,1.2-2.4,1.6c-0.9,0.4-1.9,0.6-2.9,0.6c-1,0-2-0.2-2.9-0.6c-0.9-0.4-1.7-0.9-2.4-1.6
			c-0.7-0.7-1.2-1.5-1.6-2.4C554.9,544.6,554.7,543.6,554.7,542.6z M568.9,557.2V595h-13.4v-37.9H568.9z"/>
		<path class="st73" d="M593,568.3V595h-13.4v-26.7h-4.4v-11.2h4.4v-11.4H593v11.4h7.6v11.2H593z"/>
		<path class="st73" d="M672.1,558c-3.3-4.1-7.5-6.1-12.4-6.1c-2.2,0-4.2,0.4-6,1.2c-1.8,0.8-3.4,1.9-4.8,3.2
			c-1.3,1.4-2.4,3-3.1,4.8c-0.8,1.9-1.1,3.9-1.1,6.1c0,2.2,0.4,4.3,1.1,6.1c0.8,1.9,1.8,3.5,3.2,4.9c1.4,1.4,2.9,2.5,4.8,3.3
			c1.8,0.8,3.8,1.2,5.9,1.2c4.6,0,8.8-2,12.5-5.9v17.1l-1.5,0.5c-2.2,0.8-4.3,1.4-6.2,1.7c-1.9,0.4-3.8,0.6-5.7,0.6
			c-3.8,0-7.5-0.7-11-2.2c-3.5-1.5-6.6-3.5-9.3-6.1c-2.7-2.6-4.8-5.8-6.5-9.4c-1.6-3.6-2.4-7.6-2.4-11.9c0-4.3,0.8-8.2,2.4-11.8
			c1.6-3.6,3.7-6.6,6.4-9.2c2.7-2.6,5.8-4.6,9.3-6.1c3.5-1.5,7.3-2.2,11.2-2.2c2.2,0,4.4,0.2,6.5,0.7c2.1,0.5,4.4,1.2,6.8,2.2V558z"
			/>
		<path class="st73" d="M680,533.7h13.4V562c1.8-2.2,3.7-3.7,5.5-4.5c1.9-0.8,4.1-1.1,6.6-1.1c4.8,0,8.4,1.3,10.8,4
			c2.4,2.6,3.7,6.2,3.7,10.7V595h-13.4v-19.1c0-1.9-0.1-3.5-0.4-4.7s-0.8-2.1-1.5-2.7c-1.2-1-2.6-1.6-4.3-1.6c-2.3,0-4,0.7-5.2,2
			c-1.2,1.4-1.8,3.3-1.8,5.8V595H680V533.7z"/>
		<path class="st73" d="M741.1,578.4c0,5.8,2.7,8.6,8.1,8.6c2.9,0,5.1-1.2,6.6-3.5h12.9c-2.6,8.7-9.1,13-19.6,13
			c-3.2,0-6.1-0.5-8.8-1.4c-2.7-1-4.9-2.3-6.8-4.1c-1.9-1.8-3.4-3.9-4.4-6.4s-1.6-5.2-1.6-8.3c0-3.2,0.5-6,1.5-8.5
			c1-2.5,2.4-4.7,4.2-6.5c1.8-1.8,4-3.1,6.6-4.1c2.6-1,5.5-1.4,8.8-1.4c3.2,0,6.1,0.5,8.6,1.4c2.6,1,4.7,2.4,6.5,4.2
			c1.8,1.8,3.1,4.1,4.1,6.7c0.9,2.6,1.4,5.6,1.4,8.9v1.4H741.1z M756.8,570.6c-0.4-1.9-1.4-3.4-2.7-4.5c-1.4-1.1-3.1-1.7-5-1.7
			c-2.1,0-3.8,0.5-5.1,1.6c-1.3,1.1-2.1,2.6-2.5,4.6H756.8z"/>
		<path class="st73" d="M805.5,569.4c-2.3-1.6-4.7-2.4-7-2.4c-1.3,0-2.5,0.2-3.6,0.7c-1.1,0.4-2.1,1.1-2.9,1.9
			c-0.8,0.8-1.5,1.8-2,2.9c-0.5,1.1-0.7,2.4-0.7,3.7c0,1.3,0.2,2.5,0.7,3.7c0.5,1.1,1.1,2.1,1.9,2.9c0.8,0.8,1.8,1.4,2.9,1.9
			c1.1,0.4,2.3,0.7,3.6,0.7c2.5,0,4.9-0.9,7-2.6v11.4c-3.3,1.4-6.4,2.1-9.4,2.1c-2.8,0-5.4-0.5-7.9-1.4c-2.5-0.9-4.7-2.3-6.6-4
			c-1.9-1.7-3.4-3.8-4.5-6.3c-1.1-2.4-1.7-5.2-1.7-8.2c0-3,0.5-5.7,1.6-8.2c1.1-2.5,2.6-4.6,4.4-6.4c1.9-1.8,4.1-3.2,6.7-4.2
			c2.6-1,5.4-1.5,8.3-1.5c3.2,0,6.3,0.7,9,2.1V569.4z"/>
		<path class="st73" d="M828.3,533.7v37.1l14-13.7h18.3l-19,17.5l20.1,20.4H843l-14.7-15.4V595h-13.4v-61.3H828.3z"/>
	</g>
	<g>
		<g>
			<g>
				<polygon class="st77" points="824.6,201 794,170.5 664,299 607,242.8 576.5,273.3 664,360.1 				"/>
			</g>
			<path class="st1" d="M749.9,348.8c-29.2,31-74.6,46.5-122.6,32.7c-38.3-11.1-68.5-41.3-79.4-79.6
				c-23.2-81,37.3-154.9,114.8-154.9c34.4,0,65.4,14.5,87.2,37.8l29.1-29.1c-0.8-0.9-1.7-1.8-2.6-2.6
				c-30.4-30.4-70.8-47.1-113.7-47.1c-43,0-83.4,16.7-113.7,47.1c-30.4,30.4-47.1,70.8-47.1,113.7c0,43,16.7,83.4,47.1,113.7
				c30.4,30.4,70.8,47.1,113.7,47.1c43,0,83.4-16.7,113.7-47.1c0.9-0.9,1.7-1.8,2.6-2.6L749.9,348.8z"/>
		</g>
		
			<rect x="408.4" y="426.9" transform="matrix(0.7071 -0.7071 0.7071 0.7071 -163.6069 475.8007)" class="st1" width="168.4" height="16.9"/>
		<path class="st1" d="M443.1,508.7c6.1,0,12.2-2.3,16.9-7l72.5-72.5c9.3-9.3,9.3-24.5,0-33.8c-9.3-9.3-24.5-9.3-33.8,0L426.2,468
			c-9.3,9.3-9.3,24.5,0,33.8C430.8,506.4,437,508.7,443.1,508.7z"/>
		<path class="st46" d="M457.2,454.1c0.7,0,1.3-0.3,1.9-0.8c18-18.3,36.4-36.7,54.7-54.6c1-1,1-2.7,0-3.7c-1-1-2.7-1-3.7,0
			c-18.3,17.9-36.7,36.3-54.8,54.7c-1,1-1,2.7,0,3.7C455.9,453.9,456.5,454.1,457.2,454.1z"/>
	</g>
	<path class="st46" d="M450.3,462.1L434,478.4c-0.9,0.9-2.5,0.9-3.4,0l0,0c-0.9-0.9-0.9-2.5,0-3.4l16.3-16.3c0.9-0.9,2.5-0.9,3.4,0
		l0,0C451.2,459.7,451.2,461.2,450.3,462.1z"/>
</g>
</svg>
